PathFileType	4	(X/Y/Z)	/Users/niels/Desktop/University/Third Semester/Perception and Action/Exam/Gymnastics Motion Tracking/Code for Gym Tracking/Analyzed Data/Webcam_Backflip/id6_4_baseline_Sports2D/id6_4_baseline_Sports2D_px_person00.trc
DataRate	CameraRate	NumFrames	NumMarkers	Units	OrigDataRate	OrigDataStartFrame	OrigNumFrames
29.81132075471698	29.81132075471698	9	22	m	29.81132075471698	59	159
Frame#	Time	Hip			RHip			RKnee			RAnkle			RBigToe			RSmallToe			RHeel			LHip			LKnee			LAnkle			LBigToe			LSmallToe			LHeel			Neck			Head			Nose			RShoulder			RElbow			RWrist			LShoulder			LElbow			LWrist		
		X1	Y1	Z1	X2	Y2	Z2	X3	Y3	Z3	X4	Y4	Z4	X5	Y5	Z5	X6	Y6	Z6	X7	Y7	Z7	X8	Y8	Z8	X9	Y9	Z9	X10	Y10	Z10	X11	Y11	Z11	X12	Y12	Z12	X13	Y13	Z13	X14	Y14	Z14	X15	Y15	Z15	X16	Y16	Z16	X17	Y17	Z17	X18	Y18	Z18	X19	Y19	Z19	X20	Y20	Z20	X21	Y21	Z21	X22	Y22	Z22
59	1.9791139240506328	0.8525390504955354	-0.6006101890879019	0.0	0.8516695555754874	-0.602456361914604	0.0	0.8656960526830016	-0.7030894236775086	0.0	0.839497011680579	-0.7946103088588283	0.0	0.85954261543569	-0.8169566256900271	0.0	0.8546460995721841	-0.8181923895408514	0.0	0.8307022150309127	-0.8062640947845484	0.0	0.8555730593260455	-0.6002824114156352	0.0	0.8648250544184438	-0.7011470187762402	0.0	0.8396711854242055	-0.7900162249991992	0.0	0.86318200476944	-0.8122732261976275	0.0	0.8548301121756063	-0.810859810215767	0.0	0.8307659083820724	-0.8026628637926113	0.0	0.9517269161790605	-0.5196029187849343	0.0	1.0157464033506727	-0.5079759561255701	0.0	0.9900905737860566	-0.5259985733101847	0.0	0.944650664959571	-0.5253106324629896	0.0	0.9886267916147222	-0.5525388143548439	0.0	1.0422721252008378	-0.5523158151833333	0.0	0.9459774063778165	-0.5136557003211663	0.0	0.9867017815033075	-0.51145562326559	0.0	1.0271026261467997	-0.4709265921674141	0.0
60	2.0126582278481013	0.8526632164418619	-0.6332001929832317	0.0	0.8524917088693174	-0.6352577425735283	0.0	0.869439501977477	-0.7336420741844788	0.0	0.8431155435996391	-0.8221341327357282	0.0	0.8613340333437122	-0.8425446890991944	0.0	0.8578588498311901	-0.8441461868477195	0.0	0.8343114169547258	-0.8328279021129328	0.0	0.8550764266968711	-0.6331771090843595	0.0	0.8677668977453423	-0.7318279764733262	0.0	0.8414870493263108	-0.818129405027286	0.0	0.8649969173607595	-0.8384038974522097	0.0	0.8562067603652878	-0.8368756002802488	0.0	0.832273747603337	-0.8294248413537382	0.0	0.93754092536151	-0.5329298217629667	0.0	0.9979476093105253	-0.5112349100389022	0.0	0.9759543985821447	-0.5319133775437066	0.0	0.9306306045285311	-0.5398583492144281	0.0	0.98379923819438	-0.5537631149164046	0.0	1.0375058422302659	-0.5385736947679617	0.0	0.9310179634846062	-0.5298944218752988	0.0	0.9787271054402282	-0.5168140053129828	0.0	1.019154442090089	-0.47257522282937475	0.0
61	2.0462025316455694	0.8537772103222931	-0.6547545787696498	0.0	0.8538756129622221	-0.6568246948272333	0.0	0.8736682027817184	-0.753257171611675	0.0	0.8445373687845359	-0.8382039897200716	0.0	0.8608979637922366	-0.8582698585637766	0.0	0.8585175261076299	-0.8601177051460042	0.0	0.8348790989793052	-0.847952470166074	0.0	0.8559203152180588	-0.65495321038533	0.0	0.8711958798352691	-0.7515014213408154	0.0	0.8424807993440936	-0.8347710611705532	0.0	0.8659083002092799	-0.8543041346910403	0.0	0.857079464080731	-0.8523839030193124	0.0	0.8323646221990794	-0.8447743759957717	0.0	0.9251889328232299	-0.5418964560057737	0.0	0.981565830885847	-0.5108473564633933	0.0	0.96312845085325	-0.5337609090657627	0.0	0.9185999420391884	-0.5494963024908689	0.0	0.9761743805754914	-0.5515944208998889	0.0	1.027254132604761	-0.5247603000330116	0.0	0.9182012884181046	-0.5415100842563132	0.0	0.9689488155846582	-0.5229682562873306	0.0	1.0080390563968558	-0.4787769562848748	0.0
62	2.079746835443038	0.855144575080392	-0.6631096307126872	0.0	0.8550362833713674	-0.6649645028822102	0.0	0.8783669537858955	-0.7596999864019828	0.0	0.844995890656726	-0.8418374188126263	0.0	0.859231990621119	-0.8623950010370257	0.0	0.8575007782276197	-0.8642930914092201	0.0	0.8338833132460047	-0.8510658508872831	0.0	0.8573288688588152	-0.663304408780365	0.0	0.8751419785748806	-0.7579110438305231	0.0	0.8432468727903603	-0.8388294974468036	0.0	0.8662146113084557	-0.8587844820835936	0.0	0.8577229740038222	-0.8562184119201887	0.0	0.8320192786288763	-0.8480095730811703	0.0	0.915745899483986	-0.5432951250071016	0.0	0.9683884597427831	-0.5040798744985213	0.0	0.9531914533560418	-0.5289649644530329	0.0	0.9097792865681105	-0.5511177633773527	0.0	0.9681398075970494	-0.544837637292301	0.0	1.0159279437150044	-0.510802129709409	0.0	0.9088336404424822	-0.5450177400093965	0.0	0.960366454299185	-0.5256157046605573	0.0	0.9987441184271582	-0.48378075616493454	0.0
63	2.113291139240506	0.8564541457647956	-0.6579892036444895	0.0	0.8557415180042341	-0.6594359662193225	0.0	0.8835731447374215	-0.7526970020641134	0.0	0.8455290450222291	-0.8334164946608201	0.0	0.8576534634804602	-0.8548132549804022	0.0	0.8560084432177205	-0.8564906694112849	0.0	0.8327379481178961	-0.8426953880399443	0.0	0.8588087881706111	-0.6579471126554499	0.0	0.8797202684404757	-0.7508598803857965	0.0	0.8444069331207769	-0.8305971947890991	0.0	0.8665671665707282	-0.8518792235167795	0.0	0.8586552795303951	-0.8485880975495002	0.0	0.8321462256847805	-0.8395344522124915	0.0	0.9096093830761992	-0.5353656131062806	0.0	0.9594814945381639	-0.4899156256106447	0.0	0.9468565775191516	-0.5164317181422065	0.0	0.9045626461375942	-0.5429241150158262	0.0	0.9615124752043804	-0.5325198454306631	0.0	1.0070216764880262	-0.49584634074718814	0.0	0.9033490741932532	-0.5384385477850059	0.0	0.9546533689535595	-0.5214332973561967	0.0	0.9940193976512726	-0.48328761177989105	0.0
64	2.1468354430379746	0.8577506187368928	-0.6409745699244467	0.0	0.8562828052525865	-0.6419349118945913	0.0	0.8892976890216794	-0.7340445705961475	0.0	0.8469323691804256	-0.8149706236323504	0.0	0.8577795185472166	-0.8375559817888751	0.0	0.8555971791010599	-0.8387797646435937	0.0	0.8325956310944572	-0.8247815665012678	0.0	0.860173708232302	-0.6405415336492325	0.0	0.885007154500162	-0.73225864252932	0.0	0.8465704531770248	-0.8120047872236374	0.0	0.8679995563566565	-0.8352146253148484	0.0	0.8607928483603241	-0.831357626865779	0.0	0.8334417840790567	-0.8212454031313455	0.0	0.906541150583482	-0.5182408897195472	0.0	0.9550495276191674	-0.4691308259669273	0.0	0.9438392452851053	-0.496674994005739	0.0	0.9025011663747327	-0.5250480585431696	0.0	0.9571064303898282	-0.5144033927340397	0.0	1.0022537243287055	-0.47897087851756764	0.0	0.9013001663354578	-0.5218530753115719	0.0	0.9520070640177263	-0.5091881541764395	0.0	0.9939037113842444	-0.4754243187312491	0.0
65	2.180379746835443	0.8592689905457296	-0.6150719211306568	0.0	0.8571660448181171	-0.6156144529345764	0.0	0.8953959925120413	-0.7070308053778996	0.0	0.8498282488214356	-0.7897554172291604	0.0	0.8609789801003821	-0.8140536908015255	0.0	0.8576786314251239	-0.8147442752487404	0.0	0.8343355323270557	-0.8003256379973475	0.0	0.8615393904913038	-0.6142053777481329	0.0	0.8908949298186188	-0.7054578584270358	0.0	0.8503608594789683	-0.7863092279487791	0.0	0.8716061446455712	-0.8117383182178433	0.0	0.8652737546514665	-0.8075665675307107	0.0	0.8365500197329212	-0.7962371277538414	0.0	0.9058637160572411	-0.4936641601938597	0.0	0.9543900966034211	-0.44347372599152257	0.0	0.9431615285812203	-0.4713590214633212	0.0	0.9025512982332525	-0.4993763550091196	0.0	0.9547609531822883	-0.4910445889332702	0.0	1.0015108104939798	-0.4595089976555936	0.0	0.9016607000609516	-0.49720652440569046	0.0	0.9517259193014732	-0.4896636391712523	0.0	0.9969411271394518	-0.4605390017483659	0.0
66	2.213924050632911	0.861243321961037	-0.583990036421976	0.0	0.8587476300445168	-0.5843050636759098	0.0	0.9014964121171009	-0.6754835448224802	0.0	0.8547092479341173	-0.7613485718613563	0.0	0.8678814835403215	-0.7878366846853362	0.0	0.8630744546300072	-0.7880911247643755	0.0	0.838633712074717	-0.7726202685884918	0.0	0.8632279607052198	-0.5827576242677331	0.0	0.8970338002636804	-0.6742523308526615	0.0	0.8563776700295356	-0.7572349017355072	0.0	0.8781225138841711	-0.7848283182681164	0.0	0.8730137238721527	-0.7805216161173073	0.0	0.84216685461058	-0.7679752001367502	0.0	0.9066992724337957	-0.4643183961029409	0.0	0.9561109719877884	-0.4148861135268625	0.0	0.9437064727225785	-0.44266780403387296	0.0	0.903562422435922	-0.46880729216074146	0.0	0.9538359412169263	-0.46342557160218356	0.0	1.0035572672430393	-0.4370065258594266	0.0	0.9032528087009407	-0.46749792525219275	0.0	0.9528229068281981	-0.46468989960812246	0.0	1.0014857501447887	-0.440226212223761	0.0
67	2.2474683544303797	0.863818132109998	-0.5513134763605979	0.0	0.8610981164875842	-0.5516284788745743	0.0	0.9070742425305102	-0.6429050547777526	0.0	0.8617987871028447	-0.7327944679257768	0.0	0.8782401091758043	-0.7616564352902341	0.0	0.8718909623498917	-0.7616864643392892	0.0	0.8458277828985146	-0.7445493601980788	0.0	0.8656425182385667	-0.5498348244408645	0.0	0.902940165954037	-0.6420637703910583	0.0	0.8649310819546429	-0.7280090222879871	0.0	0.8877196185682658	-0.7573894621793976	0.0	0.8842445649369234	-0.7530228613546425	0.0	0.8507018371735672	-0.7394845072579875	0.0	0.9082070471361988	-0.43306230436913795	0.0	0.958665473054238	-0.3850952696537033	0.0	0.9446934293981654	-0.4126972491005081	0.0	0.9046937325885998	-0.43636100856673243	0.0	0.9537780314396908	-0.43252519986793975	0.0	1.0069674266171844	-0.41112821384931686	0.0	0.905153902685276	-0.4358230267582646	0.0	0.9544895715862407	-0.43613891982610886	0.0	1.006319785462315	-0.41626680911507374	0.0
